<?xml version="1.0" standalone="no"?><!DOCTYPE svg PUBLIC "-//W3C//DTD SVG 1.1//EN" "http://www.w3.org/Graphics/SVG/1.1/DTD/svg11.dtd"><svg class="icon" height="512" viewBox="0 0 1024 1024" version="1.1" xmlns="http://www.w3.org/2000/svg"><path d="M910.222222 512h-3.527111l-65.991111 338.659556A104.504889 104.504889 0 0 1 737.678222 967.111111h-449.991111a104.504889 104.504889 0 0 1-103.025778-116.451555L118.670222 512H113.777778a56.888889 56.888889 0 1 1 0-113.777778h796.444444a56.888889 56.888889 0 0 1 0 113.777778z m-540.444444 284.444444h284.444444a28.444444 28.444444 0 0 0 0-56.888888h-284.444444a28.444444 28.444444 0 0 0 0 56.888888z m341.333333-227.555555h-398.222222a28.444444 28.444444 0 0 0 0 56.888889h398.222222a28.444444 28.444444 0 0 0 0-56.888889z m42.439111-246.044445l-166.115555-166.115555a58.766222 58.766222 0 1 1 83.057777-83.057778l166.115556 166.115556a58.766222 58.766222 0 0 1-83.057778 83.057777zM271.075556 324.266667A59.107556 59.107556 0 0 1 187.733333 240.924444L354.702222 73.955556A59.107556 59.107556 0 0 1 438.044444 157.297778z" fill="#FF9800" /></svg>